<?xml version="1.0" encoding="utf-8"?>
<!-- Generator: Adobe Illustrator 16.0.0, SVG Export Plug-In . SVG Version: 6.00 Build 0)  -->
<!DOCTYPE svg PUBLIC "-//W3C//DTD SVG 1.1//EN" "http://www.w3.org/Graphics/SVG/1.1/DTD/svg11.dtd">
<svg version="1.1" id="Layer_1" xmlns="http://www.w3.org/2000/svg" xmlns:xlink="http://www.w3.org/1999/xlink" x="0px" y="0px"
	 width="40.801px" height="322.8px" viewBox="0 0 40.801 322.8" enable-background="new 0 0 40.801 322.8" xml:space="preserve">
<g>
	<g>
		<path fill="#464646" d="M27.943,119.989H12.856c-2.688,0-4.867,2.179-4.867,4.867v15.087c0,2.689,2.179,4.867,4.867,4.867h15.087
			c2.688,0,4.867-2.178,4.867-4.867v-15.087C32.811,122.167,30.633,119.989,27.943,119.989z M32.801,0H8C3.582,0,0,3.582,0,8v24.8
			c0,4.418,3.582,8,8,8h24.801c4.418,0,8-3.582,8-8V8C40.801,3.582,37.219,0,32.801,0z M36.313,30.072c0,3.446-2.793,6.24-6.24,6.24
			H10.729c-3.447,0-6.24-2.794-6.24-6.24V10.728c0-3.447,2.793-6.24,6.24-6.24h19.343c3.447,0,6.24,2.793,6.24,6.24V30.072z
			 M32.801,56H8c-4.418,0-8,3.582-8,8v24.8c0,4.418,3.582,8,8,8h24.801c4.418,0,8-3.582,8-8V64C40.801,59.582,37.219,56,32.801,56z
			 M10.729,92.312c-3.447,0-6.24-2.793-6.24-6.24v-4.527l10.169,10.769L10.729,92.312L10.729,92.312z M10.077,72.323l-5.589,5.589
			V66.728c0-3.447,2.793-6.24,6.24-6.24h19.344c1.48,0,2.838,0.518,3.908,1.379L16.608,79.238L10.077,72.323z M36.313,86.072
			c0,3.447-2.793,6.24-6.24,6.24H18.087l0.713-0.713l0.077,0.076L36.313,74.24V86.072z M32.801,112H8c-4.418,0-8,3.582-8,8V144.8
			c0,4.418,3.582,8,8,8h24.801c4.418,0,8-3.582,8-8V120C40.801,115.582,37.219,112,32.801,112z M36.313,142.072
			c0,3.447-2.793,6.24-6.24,6.24H10.729c-3.447,0-6.24-2.793-6.24-6.24v-19.344c0-3.447,2.793-6.24,6.24-6.24h19.343
			c3.447,0,6.24,2.793,6.24,6.24V142.072z"/>
	</g>
</g>
<g>
	<g>
		<path fill="#FFFFFF" d="M27.943,289.989H12.856c-2.688,0-4.867,2.179-4.867,4.867v15.087c0,2.689,2.179,4.867,4.867,4.867h15.087
			c2.688,0,4.867-2.178,4.867-4.867v-15.087C32.811,292.167,30.633,289.989,27.943,289.989z M32.801,170H8c-4.418,0-8,3.582-8,8
			V202.8c0,4.418,3.582,8,8,8h24.801c4.418,0,8-3.582,8-8V178C40.801,173.582,37.219,170,32.801,170z M36.313,200.072
			c0,3.446-2.793,6.24-6.24,6.24H10.729c-3.447,0-6.24-2.794-6.24-6.24v-19.344c0-3.447,2.793-6.24,6.24-6.24h19.343
			c3.447,0,6.24,2.793,6.24,6.24V200.072z M32.801,226H8c-4.418,0-8,3.582-8,8V258.8c0,4.418,3.582,8,8,8h24.801
			c4.418,0,8-3.582,8-8V234C40.801,229.582,37.219,226,32.801,226z M10.729,262.312c-3.447,0-6.24-2.793-6.24-6.24v-4.527
			l10.169,10.769L10.729,262.312L10.729,262.312z M10.077,242.323l-5.589,5.589v-11.184c0-3.447,2.793-6.24,6.24-6.24h19.344
			c1.48,0,2.838,0.518,3.908,1.379l-17.373,17.371L10.077,242.323z M36.313,256.072c0,3.447-2.793,6.24-6.24,6.24H18.087
			l0.713-0.713l0.077,0.076l17.436-17.436V256.072z M32.801,282H8c-4.418,0-8,3.582-8,8V314.8c0,4.418,3.582,8,8,8h24.801
			c4.418,0,8-3.582,8-8V290C40.801,285.582,37.219,282,32.801,282z M36.313,312.072c0,3.447-2.793,6.24-6.24,6.24H10.729
			c-3.447,0-6.24-2.793-6.24-6.24v-19.344c0-3.447,2.793-6.24,6.24-6.24h19.343c3.447,0,6.24,2.793,6.24,6.24V312.072z"/>
	</g>
</g>
</svg>
