<?xml version="1.0" encoding="utf-8"?>
<!-- Generator: Adobe Illustrator 16.0.0, SVG Export Plug-In . SVG Version: 6.00 Build 0)  -->
<!DOCTYPE svg PUBLIC "-//W3C//DTD SVG 1.1//EN" "http://www.w3.org/Graphics/SVG/1.1/DTD/svg11.dtd">
<svg version="1.1" id="Layer_1" xmlns="http://www.w3.org/2000/svg" xmlns:xlink="http://www.w3.org/1999/xlink" x="0px" y="0px"
	 width="40.562px" height="40.562px" viewBox="0 0 40.562 40.562" enable-background="new 0 0 40.562 40.562" xml:space="preserve">
<g>
	<path fill="none" d="M-196.845-500.717l-5.137-5.137c1.848-2.561,2.949-5.696,2.949-9.096c0-8.604-6.976-15.58-15.58-15.58
		s-15.58,6.976-15.58,15.58s6.976,15.58,15.58,15.58c3.399,0,6.535-1.101,9.096-2.949l5.137,5.137L-196.845-500.717z
		 M-227.293-514.949c0-7.003,5.678-12.681,12.681-12.681s12.681,5.677,12.681,12.681s-5.678,12.681-12.681,12.681
		S-227.293-507.946-227.293-514.949z"/>
</g>
<rect x="10.281" y="9.769" fill="#FFFFFF" width="20" height="3.985"/>
<rect x="10.281" y="25.784" fill="#FFFFFF" width="20" height="3.985"/>
<rect x="10.281" y="17.776" fill="#FFFFFF" width="20" height="3.985"/>
</svg>
