<?xml version="1.0" encoding="utf-8"?>
<!-- Generator: Adobe Illustrator 16.0.0, SVG Export Plug-In . SVG Version: 6.00 Build 0)  -->
<!DOCTYPE svg PUBLIC "-//W3C//DTD SVG 1.1//EN" "http://www.w3.org/Graphics/SVG/1.1/DTD/svg11.dtd">
<svg version="1.1" id="Capa_1" xmlns="http://www.w3.org/2000/svg" xmlns:xlink="http://www.w3.org/1999/xlink" x="0px" y="0px"
	 width="479px" height="749px" viewBox="15 -113.25 479 749" enable-background="new 15 -113.25 479 749" xml:space="preserve">
<g id="Like_2">
	<path fill="#FB5255" d="M442.024,283.011c21.918,1,40.512-16.267,41.472-38.566c0.959-22.302-14.451-42.351-36.387-43.314
		l-145.616-18.283c0,0,30.347-50.761,30.347-125.967C331.838,6.746,296.022,0,274.958,0C258.388-0.006,253.926,32.1,253.926,32.1
		h-0.034c-3.752,20.587-8.638,38.565-25.615,71.668c-19.004,37.103-44.886,33.622-75.103,66.669
		c-5.333,5.819-12.498,15.426-19.481,27.246c-0.568,0.625-1.102,1.5-1.615,2.73c-0.623,1.466-1.369,2.482-2.025,3.839
		c-1.157,2.125-2.295,4.25-3.413,6.48c-18.702,18.702-47.838,16.791-60.245,16.791c-24.886,0-37.92,14.46-37.92,37.92
		l-0.009,173.367c0,26.32,10.77,35.198,37.931,35.198h37.921c19.092,0,34.04,10.943,56.883,18.96
		c31.285,10.839,78.012,18.975,158.499,18.975c14.077,0,57.736,0.053,57.736,0.053c13.367,0,24.104-6.104,31.853-13.479
		c2.949-2.803,6.025-6.875,7.342-14.82c0.214-1.23,0.442-6.393,0.408-7.089c1.012-22.729-12.729-30.958-20.513-33.55
		c0.211-0.072,0.071-0.267,0.495-0.25l24.71,1.105c21.935,1,43.586-14.802,43.586-41.673c0-22.282-18.062-37.996-39.925-39.066
		l13.103,0.608c21.934,0.964,40.474-16.302,41.487-38.603C480.936,302.885,463.942,284.013,442.024,283.011z"/>
</g>
</svg>
