<?xml version="1.0" encoding="utf-8"?>
<!-- Generator: Adobe Illustrator 16.0.0, SVG Export Plug-In . SVG Version: 6.00 Build 0)  -->
<!DOCTYPE svg PUBLIC "-//W3C//DTD SVG 1.1//EN" "http://www.w3.org/Graphics/SVG/1.1/DTD/svg11.dtd">
<svg version="1.1" id="Layer_1" xmlns="http://www.w3.org/2000/svg" xmlns:xlink="http://www.w3.org/1999/xlink" x="0px" y="0px"
	 width="552.662px" height="102.871px" viewBox="0 0 552.662 102.871" enable-background="new 0 0 552.662 102.871"
	 xml:space="preserve">
<g>
	<g>
		<path fill="#FFFFFF" d="M482.297,66.664c0,11.782,4.433,16.156,10.79,16.156c6.531,0,10.79-4.433,10.79-16.214
			c0-11.782-4.259-16.273-10.79-16.273C486.554,50.333,482.297,54.882,482.297,66.664z M51.018,69.8
			c-4.196,3.424-8.834,6.404-15.791,6.404c-9.497,0-16.123-6.221-16.123-24.552c0-18.662,6.957-24.883,16.563-24.883
			c5.302,0,9.719,1.988,13.693,5.521l9.055-12.221c-6.294-5.3-13.473-8.503-23.853-8.503C14.908,11.568,0,26.034,0,51.653
			C0,77.936,13.914,91.96,34.233,91.96c11.374,0,19.767-4.639,25.066-9.938L51.018,69.8z M366.664,66.082
			c0-7.949-4.97-10.711-12.589-10.711h-8.393v20.65h7.619C360.369,76.021,366.664,74.365,366.664,66.082z M81.71,13.556
			L58.189,90.082h19.325l3.976-16.453h22.196l3.975,16.453h19.657l-23.411-76.525H81.71z M84.361,60.376l7.951-32.354h0.552
			l7.841,32.354H84.361z M552.662,102.871l-43.446-42.445c0.352,1.891,0.553,3.938,0.553,6.182c0,13.415-6.823,20.764-16.681,20.764
			c-9.856,0-16.682-7.058-16.682-20.705c0-13.414,6.824-20.88,16.682-20.88c0.406,0,0.801,0.031,1.196,0.056L447.361,0h-243v12.746
			h74.628v50.356c0,9.717,3.534,14.466,11.705,14.466c8.172,0,11.706-4.749,11.706-14.466V12.746h18.331v50.908
			c0,15.682-10.049,27.497-30.037,27.497c-20.098,0-30.036-11.153-30.036-27.497V26.77h-20.092v62.502h-18.332V26.77h-17.276
			l-1.011-13.214h-23.08l-10.822,51.46h-0.44l-11.485-51.46h-23.08l-5.742,76.525h17.89l1.436-35.227
			c0.331-8.834,0.11-13.691-0.552-19.875h0.441l12.147,47.262h17.558l11.596-47.262h0.44c-0.331,5.411-0.331,9.275-0.109,17.445
			c0.332,12.59,0.993,25.068,1.655,37.656h12.561v12.789H552.662z M460.661,45.784c5.134,0,8.165,1.4,11.315,3.966l-3.033,3.558
			c-2.45-2.042-5.074-2.975-7.933-2.975c-5.949,0-11.141,4.141-11.141,16.213c0,11.606,4.842,16.156,11.082,16.156
			c4.199,0,6.767-1.69,8.748-3.44l2.858,3.616c-2.508,2.392-6.241,4.49-11.84,4.49c-9.684,0-16.739-7.289-16.739-20.822
			C443.98,53.017,451.678,45.784,460.661,45.784z M440.48,79.263c2.333,0,4.083,1.808,4.083,4.023c0,2.275-1.75,4.084-4.083,4.084
			c-2.274,0-4.024-1.809-4.024-4.084C436.456,81.07,438.206,79.263,440.48,79.263z M389.515,12.746h42.293l-0.257,13.031h-23.705
			v18.221h23.521v12.81h-23.521v19.215h23.962v13.251h-42.293V12.746L389.515,12.746z M327.351,12.746h25.619
			c15.9,0,29.483,4.638,29.483,19.546c0,9.166-7.066,14.687-13.251,16.123v0.441c7.51,1.546,16.453,5.963,16.453,18
			c0,17.669-14.907,22.417-31.582,22.417H327.35L327.351,12.746L327.351,12.746z M363.792,34.168c0-5.963-3.645-8.502-11.595-8.502
			h-6.516v17.668h7.066C360.48,43.334,363.792,40.574,363.792,34.168z"/>
	</g>
</g>
</svg>
