<?xml version="1.0" encoding="utf-8"?>
<!-- Generator: Adobe Illustrator 16.0.0, SVG Export Plug-In . SVG Version: 6.00 Build 0)  -->
<!DOCTYPE svg PUBLIC "-//W3C//DTD SVG 1.1//EN" "http://www.w3.org/Graphics/SVG/1.1/DTD/svg11.dtd">
<svg version="1.1" id="Layer_1" xmlns="http://www.w3.org/2000/svg" xmlns:xlink="http://www.w3.org/1999/xlink" x="0px" y="0px"
	 width="348.3px" height="179.592px" viewBox="0 0 348.3 179.592" enable-background="new 0 0 348.3 179.592" xml:space="preserve">
<g>
	<g>
		<path fill="#FB5255" d="M277.936,143.387c0,11.781,4.433,16.155,10.79,16.155c6.532,0,10.79-4.433,10.79-16.214
			s-4.258-16.273-10.79-16.273S277.936,131.605,277.936,143.387z M304.854,137.149c0.352,1.889,0.553,3.938,0.553,6.18
			c0,13.414-6.824,20.764-16.681,20.764c-9.857,0-16.682-7.058-16.682-20.705c0-13.415,6.824-20.881,16.682-20.881
			c0.407,0,0.801,0.031,1.196,0.056L243,76.722h-31.146l-5.716-74.734h-23.08l-10.822,51.459h-0.441L160.31,1.988h-23.08
			l-5.608,74.734h-2.664L106.096,1.988H83.899L60.929,76.722h-8.217c3.517-1.736,6.447-3.938,8.777-6.269l-8.282-12.221
			c-4.196,3.423-8.834,6.405-15.792,6.405c-9.497,0-16.123-6.221-16.123-24.552c0-18.662,6.957-24.883,16.564-24.883
			c5.3,0,9.718,1.988,13.693,5.521l9.055-12.221C54.311,3.203,47.133,0,36.753,0C17.097,0,2.189,14.466,2.189,40.085
			c0,18.481,6.887,30.892,18.036,36.637H0v12.746h74.628v50.355c0,9.719,3.534,14.467,11.706,14.467
			c8.171,0,11.705-4.748,11.705-14.467V89.468h18.332v50.908c0,15.681-10.049,27.496-30.037,27.496
			c-20.098,0-30.037-11.152-30.037-27.496v-36.883H36.206v62.502H17.874v-62.502H0v76.1h348.3L304.854,137.149z M94.5,16.454h0.552
			l7.84,32.356H86.55L94.5,16.454z M80.136,76.722l3.542-14.661h22.196l3.542,14.661H80.136z M150.261,23.412h0.441l12.147,47.262
			h17.558l11.596-47.262h0.441c-0.331,5.411-0.331,9.275-0.11,17.446c0.315,11.99,0.933,23.883,1.563,35.864H149.45l1.362-33.434
			C151.144,34.454,150.923,29.596,150.261,23.412z M149.713,165.995H122.99V89.468h25.62c15.901,0,29.484,4.638,29.484,19.546
			c0,9.165-7.067,14.687-13.252,16.122v0.441c7.51,1.546,16.454,5.964,16.454,18C181.296,161.247,166.388,165.995,149.713,165.995z
			 M227.007,120.719v12.81h-23.521v19.214h23.962v13.252h-42.293V89.468h42.293l-0.258,13.031h-23.704v18.221H227.007z
			 M236.119,164.092c-2.275,0-4.024-1.809-4.024-4.083c0-2.216,1.749-4.024,4.024-4.024c2.333,0,4.082,1.809,4.082,4.024
			C240.201,162.284,238.452,164.092,236.119,164.092z M256.357,164.092c-9.682,0-16.739-7.291-16.739-20.822
			s7.699-20.764,16.682-20.764c5.132,0,8.165,1.4,11.314,3.966l-3.033,3.558c-2.449-2.041-5.074-2.975-7.932-2.975
			c-5.949,0-11.141,4.142-11.141,16.215c0,11.606,4.842,16.156,11.082,16.156c4.199,0,6.766-1.691,8.749-3.441l2.857,3.616
			C265.689,161.993,261.957,164.092,256.357,164.092z M159.431,110.891c0-5.963-3.644-8.504-11.595-8.504h-6.516v17.669h7.068
			C156.118,120.056,159.431,117.295,159.431,110.891z M149.713,132.093h-8.393v20.649h7.62c7.067,0,13.362-1.656,13.362-9.938
			C162.303,134.854,157.333,132.093,149.713,132.093z"/>
	</g>
</g>
</svg>
