<?xml version="1.0" encoding="utf-8"?>
<!-- Generator: Adobe Illustrator 16.0.0, SVG Export Plug-In . SVG Version: 6.00 Build 0)  -->
<!DOCTYPE svg PUBLIC "-//W3C//DTD SVG 1.1//EN" "http://www.w3.org/Graphics/SVG/1.1/DTD/svg11.dtd">
<svg version="1.1" id="Layer_1" xmlns="http://www.w3.org/2000/svg" xmlns:xlink="http://www.w3.org/1999/xlink" x="0px" y="0px"
	 width="100px" height="100px" viewBox="0 0 100 100" enable-background="new 0 0 100 100" xml:space="preserve">
<g>
	<g>
		<path fill-rule="evenodd" clip-rule="evenodd" fill="#FFFFFF" d="M50,0.5C22.665,0.5,0.5,22.665,0.5,50
			c0,27.314,22.165,49.5,49.5,49.5c27.314,0,49.5-22.186,49.5-49.5C99.5,22.665,77.314,0.5,50,0.5z M50,88.621
			C28.667,88.621,11.402,71.32,11.402,50c0-21.333,17.265-38.598,38.598-38.598c21.32,0,38.621,17.265,38.621,38.598
			C88.621,71.32,71.32,88.621,50,88.621z M75.706,49.3c-2.854-1.682-36.654-21.221-38.346-22.188
			c-2.111-1.208-4.254,0.318-4.254,2.37v44.52c0,2.244,2.368,3.389,4.157,2.346c2.465-1.354,36.377-20.984,38.442-22.236
			C77.6,53.043,77.6,50.412,75.706,49.3z"/>
	</g>
</g>
</svg>
