<?xml version="1.0" encoding="utf-8"?>
<!-- Generator: Adobe Illustrator 16.0.0, SVG Export Plug-In . SVG Version: 6.00 Build 0)  -->
<!DOCTYPE svg PUBLIC "-//W3C//DTD SVG 1.1//EN" "http://www.w3.org/Graphics/SVG/1.1/DTD/svg11.dtd">
<svg version="1.1" id="Layer_1" xmlns="http://www.w3.org/2000/svg" xmlns:xlink="http://www.w3.org/1999/xlink" x="0px" y="0px"
	 width="33.348px" height="33.348px" viewBox="0 0 33.348 33.348" enable-background="new 0 0 33.348 33.348" xml:space="preserve">
<g>
	<path fill="none" d="M-204.732-508.268l-5.137-5.137c1.848-2.561,2.949-5.696,2.949-9.096c0-8.604-6.977-15.58-15.58-15.58
		c-8.604,0-15.58,6.976-15.58,15.58c0,8.604,6.976,15.58,15.58,15.58c3.398,0,6.535-1.102,9.096-2.949l5.137,5.137L-204.732-508.268
		z M-235.181-522.5c0-7.003,5.679-12.682,12.682-12.682s12.681,5.678,12.681,12.682s-5.678,12.681-12.681,12.681
		S-235.181-515.497-235.181-522.5z"/>
</g>
<g>
	<g>
		<path fill="#FFFFFF" d="M33.348,29.813l-5.136-5.136c1.848-2.563,2.949-5.697,2.949-9.096C31.16,6.976,24.185,0,15.58,0
			C6.975,0,0,6.976,0,15.58c0,8.604,6.976,15.58,15.58,15.58c3.398,0,6.535-1.102,9.096-2.949l5.136,5.136L33.348,29.813z
			 M2.899,15.58c0-7.003,5.679-12.682,12.682-12.682S28.261,8.577,28.261,15.58c0,7.004-5.678,12.681-12.681,12.681
			S2.899,22.584,2.899,15.58z"/>
	</g>
</g>
</svg>
