<?xml version="1.0" encoding="utf-8"?>
<!-- Generator: Adobe Illustrator 16.0.0, SVG Export Plug-In . SVG Version: 6.00 Build 0)  -->
<!DOCTYPE svg PUBLIC "-//W3C//DTD SVG 1.1//EN" "http://www.w3.org/Graphics/SVG/1.1/DTD/svg11.dtd">
<svg version="1.1" id="Layer_1" xmlns="http://www.w3.org/2000/svg" xmlns:xlink="http://www.w3.org/1999/xlink" x="0px" y="0px"
	 width="40.562px" height="40.562px" viewBox="0 0 40.562 40.562" enable-background="new 0 0 40.562 40.562" xml:space="preserve">
<g>
	<path fill="none" d="M-196.845-500.717l-5.137-5.137c1.848-2.561,2.949-5.696,2.949-9.096c0-8.604-6.976-15.58-15.58-15.58
		s-15.58,6.976-15.58,15.58s6.976,15.58,15.58,15.58c3.399,0,6.535-1.101,9.096-2.949l5.137,5.137L-196.845-500.717z
		 M-227.293-514.949c0-7.003,5.678-12.681,12.681-12.681s12.681,5.677,12.681,12.681s-5.678,12.681-12.681,12.681
		S-227.293-507.946-227.293-514.949z"/>
</g>
<path fill="#FFFFFF" d="M32.281,31.769c0-6.628-5.372-12-12-12s-12,5.372-12,12"/>
<path fill="#FFFFFF" d="M27.478,14.966c0-3.974-3.224-7.197-7.197-7.197s-7.197,3.224-7.197,7.197c0,3.978,3.224,7.198,7.197,7.198
	S27.478,18.944,27.478,14.966z"/>
</svg>
